<svg width="34" height="34" viewBox="0 0 34 34" fill="none" xmlns="http://www.w3.org/2000/svg">
	<path opacity="0.5" d="M20.0069 17.0004L33.377 3.62972C34.2077 2.79973 34.2077 1.45302 33.377 0.623027C32.5463 -0.207676 31.2011 -0.207676 30.3704 0.623027L17.0004 13.9937L3.62957 0.623027C2.7989 -0.207676 1.45367 -0.207676 0.623001 0.623027C-0.207667 1.45302 -0.207667 2.79973 0.623001 3.62972L13.9938 17.0004L0.623001 30.371C-0.207667 31.201 -0.207667 32.5477 0.623001 33.3777C1.03834 33.7923 1.58266 34 2.12628 34C2.6699 34 3.21423 33.7923 3.62957 33.377L17.0004 20.0063L30.3704 33.377C30.7858 33.7923 31.3301 34 31.8737 34C32.4173 34 32.9617 33.7923 33.377 33.377C34.2077 32.547 34.2077 31.2003 33.377 30.3703L20.0069 17.0004Z" fill="white" />
</svg>
