<svg width="30" height="24" viewBox="0 0 30 24" fill="none" xmlns="http://www.w3.org/2000/svg">
	<path d="M28.8645 10.8791L18.2712 0.460636C17.9688 0.16324 17.5658 0 17.136 0C16.7058 0 16.303 0.163474 16.0006 0.460636L15.0388 1.40677C14.7367 1.7037 14.5702 2.10031 14.5702 2.52318C14.5702 2.94582 14.7367 3.3558 15.0388 3.65272L21.2188 9.74396H1.5847C0.699463 9.74396 0 10.4255 0 11.2964V12.634C0 13.5048 0.699463 14.2551 1.5847 14.2551H21.2889L15.0391 20.3803C14.7369 20.6777 14.5704 21.0636 14.5704 21.4864C14.5704 21.9088 14.7369 22.3003 15.0391 22.5975L16.0008 23.5405C16.3032 23.8379 16.706 24 17.1362 24C17.566 24 17.969 23.8358 18.2714 23.5384L28.8647 13.1202C29.1678 12.8218 29.3345 12.4236 29.3333 12.0002C29.3343 11.5755 29.1678 11.177 28.8645 10.8791Z" fill="white" />
</svg>
