<svg width="50" height="50" viewBox="0 0 50 50" fill="none" xmlns="http://www.w3.org/2000/svg">
	<circle cx="25" cy="25" r="23" stroke="black" stroke-width="4" />
	<path d="M34.312 29.7044C32.7563 28.4643 31.1776 27.7132 29.641 28.9513L28.7235 29.6997C28.0522 30.2429 26.8041 32.7811 21.9784 27.6073C17.1538 22.4401 20.0248 21.6356 20.6971 21.097L21.6197 20.3477C23.1482 19.1068 22.5713 17.5445 21.4689 15.9364L20.8037 14.9623C19.6962 13.3579 18.4903 12.3042 16.9578 13.5434L16.1297 14.2177C15.4524 14.6776 13.5591 16.1724 13.0999 19.0122C12.5471 22.4195 14.2907 26.3214 18.2853 30.6026C22.2749 34.8856 26.1811 37.037 29.8812 36.9995C32.9563 36.9686 34.8134 35.4307 35.3943 34.8716L36.2253 34.1963C37.7539 32.9581 36.8042 31.6974 35.2476 30.4546L34.312 29.7044Z" fill="black" />
</svg>
