<svg xmlns="http://www.w3.org/2000/svg" version="1.1" width="34" height="34" viewBox="0 0 34 34" fill="none">
	<path fill-rule="evenodd" clip-rule="evenodd" d="M33.3705 30.3526L23.1206 20.0491C24.7604 17.7167 25.5698 14.9007 25.419 12.0529C25.2681 9.20505 24.1658 6.49046 22.2888 4.34454C20.4117 2.19862 17.8688 0.745851 15.0679 0.219051C12.2669 -0.30775 9.37034 0.122007 6.84273 1.4395C4.31512 2.75698 2.30299 4.88583 1.12908 7.48447C-0.0448309 10.0831 -0.312527 13.001 0.369034 15.77C1.0506 18.5391 2.64188 20.9988 4.88759 22.7546C7.1333 24.5105 9.90328 25.4608 12.7533 25.453C15.3994 25.4531 17.9786 24.6196 20.1247 23.0705L30.3745 33.3739C30.5713 33.5723 30.8053 33.7298 31.0631 33.8372C31.3209 33.9447 31.5975 34 31.8768 34C32.1561 34 32.4326 33.9447 32.6905 33.8372C32.9483 33.7298 33.1823 33.5723 33.379 33.3739C33.7782 32.972 34.0016 32.428 34 31.8614C33.9984 31.2948 33.7719 30.7522 33.3705 30.3526ZM12.7533 21.1795C11.0619 21.1888 9.4059 20.6954 7.99508 19.762C6.58426 18.8285 5.48218 17.4968 4.82848 15.9359C4.17478 14.375 3.99892 12.655 4.32317 10.994C4.64743 9.33295 5.45717 7.80562 6.64983 6.60559C7.8425 5.40556 9.36437 4.58687 11.0225 4.25325C12.6807 3.91963 14.4006 4.08612 15.9641 4.73162C17.5276 5.37712 18.8644 6.47256 19.805 7.87911C20.7457 9.28566 21.2478 10.94 21.2478 12.6324C21.2509 13.7518 21.0337 14.8607 20.6085 15.896C20.1833 16.9313 19.5584 17.8727 18.7696 18.6663C17.9808 19.46 17.0435 20.0904 16.0112 20.5216C14.9789 20.9528 13.8719 21.1764 12.7533 21.1795Z" fill="black" />
</svg>
