<svg width="24" height="24" viewBox="0 0 24 24" fill="none" xmlns="http://www.w3.org/2000/svg">
	<path fill-rule="evenodd" clip-rule="evenodd" d="M23.5556 21.4254L16.3204 14.1523C17.478 12.5059 18.0493 10.5181 17.9428 8.5079C17.8363 6.49768 17.0582 4.5815 15.7332 3.06674C14.4083 1.55197 12.6133 0.526483 10.6361 0.154624C8.659 -0.217235 6.61436 0.0861223 4.83016 1.01611C3.04597 1.94611 1.62564 3.44882 0.796996 5.28315C-0.0316454 7.11749 -0.220607 9.17715 0.260495 11.1318C0.741597 13.0864 1.86485 14.8227 3.45006 16.0621C5.03527 17.3015 6.99055 17.9723 9.00229 17.9668C10.8702 17.9669 12.6908 17.3785 14.2057 16.2851L21.4409 23.558C21.5797 23.6981 21.7449 23.8093 21.9269 23.8851C22.1089 23.961 22.3041 24 22.5013 24C22.6984 24 22.8936 23.961 23.0756 23.8851C23.2576 23.8093 23.4228 23.6981 23.5617 23.558C23.8434 23.2744 24.0011 22.8904 24 22.4904C23.9989 22.0905 23.839 21.7074 23.5556 21.4254ZM9.00229 14.9502C7.80841 14.9568 6.63946 14.6085 5.64358 13.9496C4.64771 13.2907 3.86978 12.3507 3.40834 11.2489C2.9469 10.147 2.82277 8.93297 3.05165 7.76047C3.28054 6.58797 3.85212 5.50985 4.694 4.66277C5.53588 3.81569 6.61014 3.23779 7.78062 3.00229C8.95109 2.7668 10.1651 2.88432 11.2688 3.33997C12.3724 3.79561 13.316 4.56886 13.98 5.56173C14.644 6.55459 14.9985 7.72235 14.9985 8.91701C15.0007 9.70712 14.8473 10.4899 14.5472 11.2207C14.247 11.9515 13.8059 12.616 13.2491 13.1762C12.6923 13.7365 12.0307 14.1815 11.302 14.4859C10.5734 14.7902 9.7919 14.948 9.00229 14.9502Z" fill="#808080" />
</svg>
