<svg width="36" height="34" viewBox="0 0 36 34" fill="none" xmlns="http://www.w3.org/2000/svg">
	<path d="M13.4899 11.6845L18.0002 1.11374L22.5106 11.6862L22.7465 12.2393L23.3456 12.2902L34.8714 13.2709L26.1368 20.7654L25.6756 21.1612L25.8145 21.7529L28.4349 32.9146L18.5139 26.989L18.0012 26.6827L17.4884 26.989L7.56745 32.9146L10.1878 21.7529L10.3267 21.1612L9.86547 20.7655L1.12909 13.269L12.6549 12.2884L13.2539 12.2374L13.4899 11.6845ZM0.931779 13.2858C0.931817 13.2858 0.931857 13.2858 0.9319 13.2858L0.931779 13.2858ZM7.41443 33.006C7.41433 33.006 7.41426 33.0061 7.41424 33.0061L7.41443 33.006Z" stroke="#218CC9" stroke-width="2" />
</svg>
